<svg width="7" height="11" viewBox="0 0 7 11" fill="none" xmlns="http://www.w3.org/2000/svg">
<path d="M0.399602 10.5C0.306268 10.5 0.226935 10.472 0.161602 10.416C0.105602 10.3507 0.0776016 10.2713 0.0776016 10.178V9.73C0.0776016 9.646 0.100935 9.55267 0.147602 9.45C0.194268 9.34733 0.287602 9.23533 0.427602 9.114L3.3956 6.146C3.86227 5.754 4.2356 5.41333 4.5156 5.124C4.7956 4.82533 4.9916 4.55 5.1036 4.298C5.22494 4.03667 5.2856 3.766 5.2856 3.486C5.2856 2.954 5.13627 2.534 4.8376 2.226C4.53894 1.90867 4.0956 1.75 3.5076 1.75C2.93827 1.75 2.49494 1.918 2.1776 2.254C1.8696 2.59 1.67827 3.01 1.6036 3.514C1.58493 3.63533 1.5336 3.71933 1.4496 3.766C1.37494 3.81267 1.30494 3.836 1.2396 3.836H0.511602C0.315602 3.836 0.217602 3.74733 0.217602 3.57C0.236268 3.094 0.366935 2.62267 0.609602 2.156C0.852268 1.68933 1.2116 1.30667 1.6876 1.008C2.17293 0.7 2.7796 0.546 3.5076 0.546C4.24494 0.546 4.84694 0.681333 5.3136 0.951999C5.7896 1.21333 6.1396 1.56333 6.3636 2.002C6.5876 2.44067 6.6996 2.92133 6.6996 3.444C6.6996 4.06 6.54094 4.606 6.2236 5.082C5.9156 5.558 5.47227 6.048 4.8936 6.552L2.2056 9.282H6.5736C6.7976 9.282 6.9096 9.38933 6.9096 9.604V10.178C6.9096 10.3927 6.7976 10.5 6.5736 10.5H0.399602Z" fill="black"/>
</svg>
