<svg width="27" height="27" viewBox="0 0 27 27" fill="none" xmlns="http://www.w3.org/2000/svg">
<path d="M14.7298 20.1999C16.8313 20.1999 18.5325 19.3999 19.5332 18.2999L25.6374 21.7999C23.1356 25.1999 19.4331 26.9999 14.6298 26.9999C6.02384 26.9999 0.620117 21.1999 0.620117 13.6999C0.620117 6.1999 6.02384 0.399902 14.0294 0.399902C21.4345 0.399902 26.8382 6.0999 26.8382 13.6999C26.8382 14.7999 26.7381 15.7999 26.538 16.6999H8.62564C9.62633 19.2999 11.9279 20.1999 14.7298 20.1999ZM19.333 11.0999C18.5325 8.1999 16.2309 7.0999 13.9293 7.0999C11.0273 7.0999 9.12598 8.4999 8.4255 11.0999H19.333Z" fill="black"/>
</svg>
