<svg width="27" height="27" viewBox="0 0 27 27" fill="none" xmlns="http://www.w3.org/2000/svg">
<path d="M14.892 20.1999C16.9934 20.1999 18.6946 19.3999 19.6953 18.2999L25.7995 21.7999C23.2978 25.1999 19.5952 26.9999 14.7919 26.9999C6.18595 26.9999 0.782227 21.1999 0.782227 13.6999C0.782227 6.1999 6.28603 0.399902 14.1915 0.399902C21.5966 0.399902 27.0003 6.0999 27.0003 13.6999C27.0003 14.7999 26.9003 15.7999 26.7001 16.6999H8.78775C9.78844 19.2999 12.09 20.1999 14.892 20.1999ZM19.5952 11.0999C18.7947 8.1999 16.4931 7.0999 14.1915 7.0999C11.2895 7.0999 9.38817 8.4999 8.68768 11.0999H19.5952Z" fill="black"/>
</svg>
